<svg width="66" height="66" viewBox="0 0 66 66" fill="none" xmlns="http://www.w3.org/2000/svg">
<rect x="1" y="1" width="64" height="64" rx="16" fill="#00C850" stroke="#007832" stroke-width="1.8"/>
<rect x="15" y="11" width="36" height="37.2" rx="4" fill="white"/>
<rect x="18.6" y="18.2" width="28.8" height="16.8" rx="3" fill="#00C850"/>
<rect x="23.4" y="12.2" width="19.2" height="4.8" rx="1" fill="#00C850"/>
<circle cx="21" cy="41" r="3" fill="#00C850"/>
<circle cx="45" cy="41" r="3" fill="#00C850"/>
<path d="M42.6 45.8H47.4V52.2C47.4 53.3046 46.5046 54.2 45.4 54.2H44.6C43.4954 54.2 42.6 53.3046 42.6 52.2V45.8Z" fill="white"/>
<path d="M18.6 45.8H23.4V52.2C23.4 53.3046 22.5046 54.2 21.4 54.2H20.6C19.4954 54.2 18.6 53.3046 18.6 52.2V45.8Z" fill="white"/>
</svg>
